<?xml version="1.0" encoding="UTF-8" standalone="no"?>
<!DOCTYPE svg PUBLIC "-//W3C//DTD SVG 1.1//EN" "http://www.w3.org/Graphics/SVG/1.1/DTD/svg11.dtd">
<svg width="100%" height="100%" viewBox="0 0 956 277" version="1.1" xmlns="http://www.w3.org/2000/svg" xmlns:xlink="http://www.w3.org/1999/xlink" xml:space="preserve" xmlns:serif="http://www.serif.com/" style="fill-rule:evenodd;clip-rule:evenodd;stroke-linejoin:round;stroke-miterlimit:2;">
    <g id="Artboard3" transform="matrix(1.058693,0,0,1,-1008.934662,0)">
        <rect x="953" y="0" width="903" height="277" style="fill:none;"/>
        <g transform="matrix(0.944561,0,0,1,927.496862,-1094)">
            <g id="Artboard1" transform="matrix(0.919552,0,0,0.334541,58,1094)">
                <g transform="matrix(1.001107,0,0,1,0,0)">
                    <rect x="0" y="0" width="982" height="828" style="fill:none;"/>
                </g>
                <g id="Background" transform="matrix(1.087486,0,0,2.98917,-27.187156,-765.227437)">
                    <g transform="matrix(1,0,0,1,122,-285)">
                        <path d="M726.043,689.507C728.232,633.439 799.559,634.183 804.696,684.502C805.006,687.543 803.058,686.365 775.572,691.863C737.687,699.439 735.209,698.426 736.073,701.563C741.055,719.636 770.165,735.134 793.644,713.675C795.579,711.906 800.84,716.758 798.443,719.449C779.962,740.202 727.352,736.306 726.043,689.507ZM733.952,686.513C733.852,691.198 732.916,693.665 737.548,692.73C793.136,681.514 796.723,683.471 795.883,678.425C791.796,653.848 754.16,645.741 739.533,668.523C734.569,676.253 734.115,685.428 733.952,686.513Z" style="fill:rgb(46,62,85);"/>
                    </g>
                    <g transform="matrix(1,0,0,1,122,-285)">
                        <path d="M501.116,680.5C500.64,670.576 500.532,664.436 491.565,658.408C484.351,653.56 465.442,653.125 451.774,662.878C447.891,665.648 446.75,664.763 444.985,660.311C442.598,654.288 493.81,632.433 507.078,664.696C508.991,669.346 510.164,672.2 509.421,727.5C509.364,731.736 507.73,730.946 503.467,730.819C498.357,730.667 503.956,711.605 499.43,719.417C489.376,736.771 444.304,736.191 442.331,710.517C439.991,680.056 476.66,684.48 493.5,684.435C498.759,684.42 500.912,685.781 501.116,680.5ZM501.116,700.5C501.114,694.063 502.982,691.165 496.5,691.131C467.531,690.981 454.799,689.773 450.95,703.618C445.146,724.494 479.007,729.539 491.258,719.181C502.906,709.331 500.945,703.165 501.116,700.5Z" style="fill:rgb(51,62,87);"/>
                    </g>
                    <g transform="matrix(1,0,0,1,122,-285)">
                        <path d="M254.5,620.086C259.722,620.504 258.922,622.138 262.592,629.454C274.951,654.087 273.219,654.792 285.592,679.454C294.931,698.067 293.466,698.683 302.96,717.27C309.2,729.488 308.601,730.222 307.533,730.579C307.323,730.649 300.59,731.259 299.516,729.488C298.812,728.327 281.148,689.577 279.095,684.659C277.703,681.325 277.226,681.56 260.219,643.629C254.601,631.099 254.644,630.319 253.645,630.883C252.889,631.308 231.301,680.04 229.159,684.331C223.308,696.05 209.987,730.432 206.514,730.611C201.82,730.853 198.695,731.845 200.574,727.535C204.243,719.12 249.325,621.128 249.719,620.739C250.542,619.928 250.642,620.298 254.5,620.086Z" style="fill:rgb(47,59,85);"/>
                    </g>
                    <g transform="matrix(1,0,0,1,122,-285)">
                        <path d="M549.583,663.426C549.896,663.47 550.208,663.514 550.521,663.558C552.524,660.624 565.279,641.94 592.419,648.865C619.344,655.735 615.594,683.074 615.594,716.5C615.594,727.109 618.587,733.571 608.43,730.726C605.159,729.81 608.178,692.673 606.556,677.494C603.873,652.379 578.349,653.956 570.491,656.468C546.282,664.209 549.81,683.253 549.753,727.502C549.745,733.137 541.358,731.558 541.3,728.513C541.286,727.779 541.283,651.439 541.303,650.485C541.358,647.857 547.016,648.158 547.548,648.186C551.271,648.384 548.837,657.692 549.583,663.426Z" style="fill:rgb(50,64,87);"/>
                    </g>
                    <g transform="matrix(1,0,0,1,122,-285)">
                        <path d="M687.547,730.807C687.108,730.838 662.237,735.905 647.073,715.819C623.677,684.831 649.508,638.343 691.416,648.827C703.5,651.849 713.075,661.801 710.171,664.093C705.518,667.765 704.77,666.321 702.27,663.72C683.491,644.182 642.265,658.954 647.246,694.541C651.219,722.935 683.851,734.506 703.982,712.973C705.741,711.091 713.838,714.553 709.271,719.28C700.582,728.272 695.189,729.161 687.547,730.807Z" style="fill:rgb(50,64,87);"/>
                    </g>
                    <g transform="matrix(1,0,0,1,122,-285)">
                        <path d="M367.163,632.5C367.163,617.454 366.706,614.021 368.518,613.564C369.075,613.423 375.25,611.863 375.428,615.507C375.468,616.316 375.448,728.277 375.44,728.496C375.27,732.741 369.002,730.848 368.44,730.678C366.992,730.24 367.163,729.522 367.163,632.5Z" style="fill:rgb(40,53,81);"/>
                    </g>
                    <g transform="matrix(1,0,0,1,122,-285)">
                        <path d="M326.109,671.5C326.109,629.754 326.106,615.957 326.121,615.453C326.211,612.455 332.755,613.394 333.372,613.736C334.378,614.292 334.26,614.695 334.26,720.5C334.26,728.615 335.295,732.851 327.439,730.708C325.9,730.288 326.109,729.532 326.109,671.5Z" style="fill:rgb(40,53,81);"/>
                    </g>
                    <g transform="matrix(1,0,0,1,122,-285)">
                        <path d="M412.5,730.725C406.764,730.44 408.186,728.148 408.179,722.5C408.171,716.739 408.093,657.803 408.183,650.481C408.19,649.942 408.226,646.946 414.45,647.995C414.775,648.049 416.614,648.195 416.665,650.488C416.688,651.522 416.694,728.219 416.666,728.514C416.406,731.344 415.321,730.529 412.5,730.725Z" style="fill:rgb(39,56,81);"/>
                    </g>
                    <g transform="matrix(1,0,0,1,122,-285)">
                        <path d="M418.886,621.486C417.32,635.73 400.491,625.389 407.658,617.648C409.687,615.455 417.298,612.771 418.886,621.486Z" style="fill:rgb(47,59,85);"/>
                    </g>
                </g>
                <g transform="matrix(0.577082,0,0,1.526101,-166.744384,-26.141945)">
                    <path d="M282.967,381.47C282.395,364.049 282.853,307.917 282.723,213.5C282.662,169.179 306.072,161.763 346.231,136.077C395.563,104.524 442.324,78.975 472.215,60.091C503.423,40.375 520.038,51.592 546.723,67.116C550.375,69.241 588.868,91.633 592.258,93.874C609.441,105.228 661.952,134.836 668.239,138.912C693.606,155.356 697.492,155.247 705.362,162.649C732.309,187.991 727.446,212.818 727.462,243.5C727.514,347.572 729.769,380.065 724.386,394.456C714.142,421.839 702.103,424.545 637.231,463.021C631.991,466.129 597.557,486.552 571.278,501.087C527.029,525.562 510.756,546.002 476.748,525.102C454.703,511.553 434.453,502.799 434.185,465.503C433.649,390.717 433.779,387.87 442.848,371.699C453.823,352.131 521.878,315.557 564.442,288.409C609.171,259.881 666.261,228.361 668.639,222.562C673.86,209.832 651.563,198.184 630.239,185.987C509.158,116.727 509.762,110.285 497.42,114.247C491.317,116.206 400.764,170.209 388.751,178.826C351.499,205.546 339.674,202.088 339.928,228.499C341.158,356.44 338.703,356.523 340.876,367.423C344.935,387.783 373.534,391.013 381.114,403.735C387.995,415.283 383.616,450.729 382.875,452.647C376.342,469.558 364.413,459.606 353.276,452.871C303.278,422.636 289.661,420.788 282.967,381.47ZM506.583,469.956C514.758,467.884 521.913,459.855 633.647,395.771C661.719,379.67 670.154,381.813 670.171,349.5C670.195,302.976 670.669,300.559 665.45,299.979C662.123,299.61 628.55,321.592 615.73,328.903C607.435,333.634 511.74,391.925 506.736,394.885C489.167,405.275 491.372,413.232 491.353,431.5C491.334,448.681 488.217,471.418 506.583,469.956Z" style="fill:rgb(40,53,79);"/>
                </g>
                <g transform="matrix(0.577082,0,0,1.526101,-138.469746,-26.141945)">
                    <path d="M388.939,300.416C387.166,287.51 387.343,287.556 387.484,274.5C387.733,251.573 395.847,251.958 469.805,202.963C495.576,185.89 499.578,185.328 502.54,184.913C507.239,184.254 507.412,184.87 554.574,213.387C555.099,213.704 561.094,217.329 555.211,221.021C537.091,232.391 487.133,264.271 481.221,268.044C416.201,309.536 418.3,314.324 407.463,315.196C393.629,316.309 391.187,307.7 388.939,300.416Z" style="fill:rgb(40,53,79);"/>
                </g>
            </g>
        </g>
    </g>
</svg>
