<?xml version="1.0" encoding="UTF-8" standalone="no"?>
<!DOCTYPE svg PUBLIC "-//W3C//DTD SVG 1.1//EN" "http://www.w3.org/Graphics/SVG/1.1/DTD/svg11.dtd">
<svg width="100%" height="100%" viewBox="0 0 260 271" version="1.1" xmlns="http://www.w3.org/2000/svg" xmlns:xlink="http://www.w3.org/1999/xlink" xml:space="preserve" xmlns:serif="http://www.serif.com/" style="fill-rule:evenodd;clip-rule:evenodd;stroke-linejoin:round;stroke-miterlimit:2;">
    <g transform="matrix(1,0,0,1,-249,-0)">
        <g id="Artboard2" transform="matrix(0.264766,0,0,0.327295,249,287.364734)">
            <rect x="0" y="-878" width="982" height="828" style="fill:none;"/>
            <g transform="matrix(2.00425,0,0,1.55989,-514.908387,-910.831435)">
                <path d="M282.967,381.47C282.395,364.049 282.853,307.917 282.723,213.5C282.662,169.179 306.072,161.763 346.231,136.077C395.563,104.524 442.324,78.975 472.215,60.091C503.423,40.375 520.038,51.592 546.723,67.116C550.375,69.241 588.868,91.633 592.258,93.874C609.441,105.228 661.952,134.836 668.239,138.912C693.606,155.356 697.492,155.247 705.362,162.649C732.309,187.991 727.446,212.818 727.462,243.5C727.514,347.572 729.769,380.065 724.386,394.456C714.142,421.839 702.103,424.545 637.231,463.021C631.991,466.129 597.557,486.552 571.278,501.087C527.029,525.562 510.756,546.002 476.748,525.102C454.703,511.553 434.453,502.799 434.185,465.503C433.649,390.717 433.779,387.87 442.848,371.699C453.823,352.131 521.878,315.557 564.442,288.409C609.171,259.881 666.261,228.361 668.639,222.562C673.86,209.832 651.563,198.184 630.239,185.987C509.158,116.727 509.762,110.285 497.42,114.247C491.317,116.206 400.764,170.209 388.751,178.826C351.499,205.546 339.674,202.088 339.928,228.499C341.158,356.44 338.703,356.523 340.876,367.423C344.935,387.783 373.534,391.013 381.114,403.735C387.995,415.283 383.616,450.729 382.875,452.647C376.342,469.558 364.413,459.606 353.276,452.871C303.278,422.636 289.661,420.788 282.967,381.47ZM506.583,469.956C514.758,467.884 521.913,459.855 633.647,395.771C661.719,379.67 670.154,381.813 670.171,349.5C670.195,302.976 670.669,300.559 665.45,299.979C662.123,299.61 628.55,321.592 615.73,328.903C607.435,333.634 511.74,391.925 506.736,394.885C489.167,405.275 491.372,413.232 491.353,431.5C491.334,448.681 488.217,471.418 506.583,469.956Z" style="fill:rgb(40,53,79);"/>
            </g>
            <g transform="matrix(2.00425,0,0,1.55989,-514.908387,-910.831435)">
                <path d="M388.939,300.416C387.166,287.51 387.343,287.556 387.484,274.5C387.733,251.573 395.847,251.958 469.805,202.963C495.576,185.89 499.578,185.328 502.54,184.913C507.239,184.254 507.412,184.87 554.574,213.387C555.099,213.704 561.094,217.329 555.211,221.021C537.091,232.391 487.133,264.271 481.221,268.044C416.201,309.536 418.3,314.324 407.463,315.196C393.629,316.309 391.187,307.7 388.939,300.416Z" style="fill:rgb(40,53,79);"/>
            </g>
        </g>
    </g>
</svg>
